0
SECTION
2
HEADER
9
$INSUNITS
70
4
0
ENDSEC
0
SECTION
2
TABLES
0
TABLE
2
LTYPE
0
LTYPE
72
65
70
64
2
CONTINUOUS
3
______
73
0
40
0
0
ENDTAB
0
TABLE
2
LAYER
0
ENDTAB
0
ENDSEC
0
SECTION
2
ENTITIES
0
LINE
8
0
10
-8.75
20
-8.25
11
8.75
21
-8.25
0
LINE
8
0
10
8.75
20
-8.25
11
8.75
21
8.25
0
LINE
8
0
10
8.75
20
8.25
11
-8.75
21
8.25
0
LINE
8
0
10
-8.75
20
8.25
11
-8.75
21
-8.25
0
LINE
8
0
10
-8.75
20
8.75
11
8.75
21
8.75
0
LINE
8
0
10
8.75
20
8.75
11
8.75
21
25.25
0
LINE
8
0
10
8.75
20
25.25
11
-8.75
21
25.25
0
LINE
8
0
10
-8.75
20
25.25
11
-8.75
21
8.75
0
LINE
8
0
10
-8.75
20
25.75
11
8.75
21
25.75
0
LINE
8
0
10
8.75
20
25.75
11
8.75
21
42.25
0
LINE
8
0
10
8.75
20
42.25
11
-8.75
21
42.25
0
LINE
8
0
10
-8.75
20
42.25
11
-8.75
21
25.75
0
LINE
8
0
10
9.25
20
-2.25
11
26.75
21
-2.25
0
LINE
8
0
10
26.75
20
-2.25
11
26.75
21
14.25
0
LINE
8
0
10
26.75
20
14.25
11
9.25
21
14.25
0
LINE
8
0
10
9.25
20
14.25
11
9.25
21
-2.25
0
LINE
8
0
10
9.25
20
14.75
11
26.75
21
14.75
0
LINE
8
0
10
26.75
20
14.75
11
26.75
21
31.25
0
LINE
8
0
10
26.75
20
31.25
11
9.25
21
31.25
0
LINE
8
0
10
9.25
20
31.25
11
9.25
21
14.75
0
LINE
8
0
10
9.25
20
31.75
11
26.75
21
31.75
0
LINE
8
0
10
26.75
20
31.75
11
26.75
21
48.25
0
LINE
8
0
10
26.75
20
48.25
11
9.25
21
48.25
0
LINE
8
0
10
9.25
20
48.25
11
9.25
21
31.75
0
LINE
8
0
10
27.25
20
-2.25
11
44.75
21
-2.25
0
LINE
8
0
10
44.75
20
-2.25
11
44.75
21
14.25
0
LINE
8
0
10
44.75
20
14.25
11
27.25
21
14.25
0
LINE
8
0
10
27.25
20
14.25
11
27.25
21
-2.25
0
LINE
8
0
10
27.25
20
14.75
11
44.75
21
14.75
0
LINE
8
0
10
44.75
20
14.75
11
44.75
21
31.25
0
LINE
8
0
10
44.75
20
31.25
11
27.25
21
31.25
0
LINE
8
0
10
27.25
20
31.25
11
27.25
21
14.75
0
LINE
8
0
10
27.25
20
31.75
11
44.75
21
31.75
0
LINE
8
0
10
44.75
20
31.75
11
44.75
21
48.25
0
LINE
8
0
10
44.75
20
48.25
11
27.25
21
48.25
0
LINE
8
0
10
27.25
20
48.25
11
27.25
21
31.75
0
LINE
8
0
10
45.25
20
-2.25
11
62.75
21
-2.25
0
LINE
8
0
10
62.75
20
-2.25
11
62.75
21
14.25
0
LINE
8
0
10
62.75
20
14.25
11
45.25
21
14.25
0
LINE
8
0
10
45.25
20
14.25
11
45.25
21
-2.25
0
LINE
8
0
10
45.25
20
14.75
11
62.75
21
14.75
0
LINE
8
0
10
62.75
20
14.75
11
62.75
21
31.25
0
LINE
8
0
10
62.75
20
31.25
11
45.25
21
31.25
0
LINE
8
0
10
45.25
20
31.25
11
45.25
21
14.75
0
LINE
8
0
10
45.25
20
31.75
11
62.75
21
31.75
0
LINE
8
0
10
62.75
20
31.75
11
62.75
21
48.25
0
LINE
8
0
10
62.75
20
48.25
11
45.25
21
48.25
0
LINE
8
0
10
45.25
20
48.25
11
45.25
21
31.75
0
LINE
8
0
10
63.25
20
-2.25
11
80.75
21
-2.25
0
LINE
8
0
10
80.75
20
-2.25
11
80.75
21
14.25
0
LINE
8
0
10
80.75
20
14.25
11
63.25
21
14.25
0
LINE
8
0
10
63.25
20
14.25
11
63.25
21
-2.25
0
LINE
8
0
10
63.25
20
14.75
11
80.75
21
14.75
0
LINE
8
0
10
80.75
20
14.75
11
80.75
21
31.25
0
LINE
8
0
10
80.75
20
31.25
11
63.25
21
31.25
0
LINE
8
0
10
63.25
20
31.25
11
63.25
21
14.75
0
LINE
8
0
10
63.25
20
31.75
11
80.75
21
31.75
0
LINE
8
0
10
80.75
20
31.75
11
80.75
21
48.25
0
LINE
8
0
10
80.75
20
48.25
11
63.25
21
48.25
0
LINE
8
0
10
63.25
20
48.25
11
63.25
21
31.75
0
LINE
8
0
10
63.25
20
-23.25
11
80.75
21
-23.25
0
LINE
8
0
10
80.75
20
-23.25
11
80.75
21
-6.75
0
LINE
8
0
10
80.75
20
-6.75
11
63.25
21
-6.75
0
LINE
8
0
10
63.25
20
-6.75
11
63.25
21
-23.25
0
LINE
8
0
10
81.3481821
20
-23.4386061
11
95.6833429
21
-33.4761938
0
LINE
8
0
10
95.6833429
20
-33.4761938
11
105.1473541
21
-19.9601851
0
LINE
8
0
10
105.1473541
20
-19.9601851
11
90.8121933
21
-9.9225974
0
LINE
8
0
10
90.8121933
20
-9.9225974
11
81.3481821
21
-23.4386061
0
ENDSEC
0
EOF