0
SECTION
2
HEADER
9
$INSUNITS
70
4
0
ENDSEC
0
SECTION
2
TABLES
0
TABLE
2
LTYPE
0
LTYPE
72
65
70
64
2
CONTINUOUS
3
______
73
0
40
0
0
ENDTAB
0
TABLE
2
LAYER
0
ENDTAB
0
ENDSEC
0
SECTION
2
ENTITIES
0
LINE
8
0
10
-9.5
20
-10
11
9.5
21
-10
0
LINE
8
0
10
10.5
20
-9
11
10.5
21
-8.295085
0
LINE
8
0
10
-10.5
20
-9
11
-10.5
21
43
0
LINE
8
0
10
1.2763891
20
44
11
-9.5
21
44
0
LINE
8
0
10
17.7236109
20
-4
11
61.5
21
-4
0
LINE
8
0
10
8.5
20
50
11
81.5
21
50
0
LINE
8
0
10
7.5
20
49
11
7.5
21
48.9369318
0
LINE
8
0
10
82.5
20
40
11
82.5
21
49
0
LINE
8
0
10
62.5
20
-25
11
80.211753
21
-25
0
LINE
8
0
10
61.5
20
-24
11
61.5
21
-4
0
LINE
8
0
10
80.7853294
20
-25.180848
11
95.2939482
21
-35.3398922
0
LINE
8
0
10
96.6866766
20
-35.0943166
11
107.0110525
21
-20.3495797
0
LINE
8
0
10
106.7654769
20
-18.9568513
11
105.4264236
21
-18.0192361
0
LINE
8
0
10
105
20
-17.2000841
11
105
21
38
0
LINE
8
0
10
83.5
20
39
11
104
21
39
0
ARC
8
0
10
6
20
45.5
40
3.75
50
426.4218217
51
186.0423284
0
ARC
8
0
10
13
20
-5.5
40
3.75
50
228.1896854
51
6.0423284
0
ARC
8
0
10
9.5
20
-9
40
1
50
270
51
0
0
ARC
8
0
10
17.7236109
20
-5
40
1
50
90
51
186.0423284
0
ARC
8
0
10
62.5
20
-24
40
1
50
180
51
270
0
ARC
8
0
10
80.211753
20
-26
40
1
50
55.0000003
51
90
0
ARC
8
0
10
95.8675246
20
-34.5207402
40
1
50
235.0000003
51
325.0000003
0
ARC
8
0
10
106.1919005
20
-19.7760033
40
1
50
325.0000003
51
55.0000003
0
ARC
8
0
10
106
20
-17.2000841
40
1
50
180
51
235.0000003
0
ARC
8
0
10
104
20
38
40
1
50
0
51
90
0
ARC
8
0
10
83.5
20
40
40
1
50
180
51
270
0
ARC
8
0
10
81.5
20
49
40
1
50
0
51
90
0
ARC
8
0
10
8.5
20
49
40
1
50
90
51
180
0
ARC
8
0
10
1.2763891
20
45
40
1
50
270
51
6.0423284
0
ARC
8
0
10
-9.5
20
43
40
1
50
90
51
180
0
ARC
8
0
10
-9.5
20
-9
40
1
50
180
51
270
0
ENDSEC
0
EOF