0
SECTION
2
HEADER
9
$INSUNITS
70
4
0
ENDSEC
0
SECTION
2
TABLES
0
TABLE
2
LTYPE
0
LTYPE
72
65
70
64
2
CONTINUOUS
3
______
73
0
40
0
0
ENDTAB
0
TABLE
2
LAYER
0
ENDTAB
0
ENDSEC
0
SECTION
2
ENTITIES
0
LINE
8
0
10
-9.5
20
-10
11
9.5
21
-10
0
LINE
8
0
10
10.5
20
-9
11
10.5
21
-8.295085
0
LINE
8
0
10
-10.5
20
-9
11
-10.5
21
43
0
LINE
8
0
10
1.2763891
20
44
11
-9.5
21
44
0
LINE
8
0
10
17.7236109
20
-4
11
61.5
21
-4
0
LINE
8
0
10
8.5
20
50
11
81.5
21
50
0
LINE
8
0
10
7.5
20
49
11
7.5
21
48.9369318
0
LINE
8
0
10
82.5
20
-2.5
11
82.5
21
49
0
LINE
8
0
10
62.5
20
-25
11
80.211753
21
-25
0
LINE
8
0
10
61.5
20
-24
11
61.5
21
-4
0
LINE
8
0
10
80.7853294
20
-25.180848
11
95.2939482
21
-35.3398922
0
LINE
8
0
10
96.6866766
20
-35.0943166
11
107.0110525
21
-20.3495797
0
LINE
8
0
10
106.7654769
20
-18.9568513
11
90.4016573
21
-7.4987815
0
LINE
8
0
10
82.5
20
-2.5
11
83.0111358
21
-2.8232728
0
LINE
8
0
10
89.1743212
20
-6.7212388
11
90.3626058
21
-7.4727808
0
ARC
8
0
10
6
20
45.5
40
3.75
50
426.4218217
51
186.0423284
0
ARC
8
0
10
13
20
-5.5
40
3.75
50
228.1896854
51
6.0423284
0
ARC
8
0
10
85
20
-6.5
40
3.75
50
7.5476276
51
107.8289693
0
LINE
8
0
10
-6
20
-7
11
6
21
-7
0
LINE
8
0
10
7
20
-6
11
7
21
6
0
LINE
8
0
10
6
20
7
11
-6
21
7
0
LINE
8
0
10
-7
20
6
11
-7
21
-6
0
LINE
8
0
10
-6
20
10
11
6
21
10
0
LINE
8
0
10
7
20
11
11
7
21
23
0
LINE
8
0
10
6
20
24
11
-6
21
24
0
LINE
8
0
10
-7
20
23
11
-7
21
11
0
LINE
8
0
10
-6
20
27
11
6
21
27
0
LINE
8
0
10
7
20
28
11
7
21
40
0
LINE
8
0
10
6
20
41
11
-6
21
41
0
LINE
8
0
10
-7
20
40
11
-7
21
28
0
LINE
8
0
10
12
20
-1
11
24
21
-1
0
LINE
8
0
10
25
20
0
11
25
21
12
0
LINE
8
0
10
24
20
13
11
12
21
13
0
LINE
8
0
10
11
20
12
11
11
21
0
0
LINE
8
0
10
12
20
16
11
24
21
16
0
LINE
8
0
10
25
20
17
11
25
21
29
0
LINE
8
0
10
24
20
30
11
12
21
30
0
LINE
8
0
10
11
20
29
11
11
21
17
0
LINE
8
0
10
12
20
33
11
24
21
33
0
LINE
8
0
10
25
20
34
11
25
21
46
0
LINE
8
0
10
24
20
47
11
12
21
47
0
LINE
8
0
10
11
20
46
11
11
21
34
0
LINE
8
0
10
30
20
-1
11
42
21
-1
0
LINE
8
0
10
43
20
0
11
43
21
12
0
LINE
8
0
10
42
20
13
11
30
21
13
0
LINE
8
0
10
29
20
12
11
29
21
0
0
LINE
8
0
10
30
20
16
11
42
21
16
0
LINE
8
0
10
43
20
17
11
43
21
29
0
LINE
8
0
10
42
20
30
11
30
21
30
0
LINE
8
0
10
29
20
29
11
29
21
17
0
LINE
8
0
10
30
20
33
11
42
21
33
0
LINE
8
0
10
43
20
34
11
43
21
46
0
LINE
8
0
10
42
20
47
11
30
21
47
0
LINE
8
0
10
29
20
46
11
29
21
34
0
LINE
8
0
10
48
20
-1
11
60
21
-1
0
LINE
8
0
10
61
20
0
11
61
21
12
0
LINE
8
0
10
60
20
13
11
48
21
13
0
LINE
8
0
10
47
20
12
11
47
21
0
0
LINE
8
0
10
48
20
16
11
60
21
16
0
LINE
8
0
10
61
20
17
11
61
21
29
0
LINE
8
0
10
60
20
30
11
48
21
30
0
LINE
8
0
10
47
20
29
11
47
21
17
0
LINE
8
0
10
48
20
33
11
60
21
33
0
LINE
8
0
10
61
20
34
11
61
21
46
0
LINE
8
0
10
60
20
47
11
48
21
47
0
LINE
8
0
10
47
20
46
11
47
21
34
0
LINE
8
0
10
66
20
-1
11
78
21
-1
0
LINE
8
0
10
79
20
0
11
79
21
12
0
LINE
8
0
10
78
20
13
11
66
21
13
0
LINE
8
0
10
65
20
12
11
65
21
0
0
LINE
8
0
10
66
20
16
11
78
21
16
0
LINE
8
0
10
79
20
17
11
79
21
29
0
LINE
8
0
10
78
20
30
11
66
21
30
0
LINE
8
0
10
65
20
29
11
65
21
17
0
LINE
8
0
10
66
20
33
11
78
21
33
0
LINE
8
0
10
79
20
34
11
79
21
46
0
LINE
8
0
10
78
20
47
11
66
21
47
0
LINE
8
0
10
65
20
46
11
65
21
34
0
LINE
8
0
10
66
20
-22
11
78
21
-22
0
LINE
8
0
10
79
20
-21
11
79
21
-9
0
LINE
8
0
10
78
20
-8
11
66
21
-8
0
LINE
8
0
10
65
20
-9
11
65
21
-21
0
LINE
8
0
10
84.3178207
20
-23.9920013
11
94.1476454
21
-30.8749186
0
LINE
8
0
10
95.5403738
20
-30.629343
11
102.4232911
21
-20.7995183
0
LINE
8
0
10
102.1777155
20
-19.4067899
11
92.3478908
21
-12.5238726
0
LINE
8
0
10
90.9551624
20
-12.7694482
11
84.0722451
21
-22.5992729
0
ARC
8
0
10
9.5
20
-9
40
1
50
270
51
0
0
ARC
8
0
10
17.7236109
20
-5
40
1
50
90
51
186.0423284
0
ARC
8
0
10
62.5
20
-24
40
1
50
180
51
270
0
ARC
8
0
10
80.211753
20
-26
40
1
50
55.0000003
51
90
0
ARC
8
0
10
95.8675246
20
-34.5207402
40
1
50
235.0000003
51
325.0000003
0
ARC
8
0
10
106.1919005
20
-19.7760033
40
1
50
325.0000003
51
55.0000003
0
ARC
8
0
10
89.8280809
20
-8.3179335
40
1
50
55.0000003
51
57.6883021
0
ARC
8
0
10
89.7088461
20
-5.8760861
40
1
50
187.5476276
51
237.6883021
0
ARC
8
0
10
83.5456608
20
-1.9781201
40
1
50
237.6882973
51
287.8289693
0
ARC
8
0
10
81.5
20
49
40
1
50
0
51
90
0
ARC
8
0
10
8.5
20
49
40
1
50
90
51
180
0
ARC
8
0
10
1.2763891
20
45
40
1
50
270
51
6.0423284
0
ARC
8
0
10
-9.5
20
43
40
1
50
90
51
180
0
ARC
8
0
10
-9.5
20
-9
40
1
50
180
51
270
0
ARC
8
0
10
94.7212218
20
-30.0557666
40
1
50
235.0000003
51
325.0000003
0
ARC
8
0
10
101.6041391
20
-20.2259419
40
1
50
325.0000003
51
55.0000003
0
ARC
8
0
10
91.7743144
20
-13.3430246
40
1
50
55.0000003
51
145.0000003
0
ARC
8
0
10
84.8913971
20
-23.1728493
40
1
50
145.0000003
51
235.0000003
0
ARC
8
0
10
6
20
-6
40
1
50
270
51
0
0
ARC
8
0
10
6
20
6
40
1
50
0
51
90
0
ARC
8
0
10
-6
20
6
40
1
50
90
51
180
0
ARC
8
0
10
-6
20
-6
40
1
50
180
51
270
0
ARC
8
0
10
6
20
11
40
1
50
270
51
0
0
ARC
8
0
10
6
20
23
40
1
50
0
51
90
0
ARC
8
0
10
-6
20
23
40
1
50
90
51
180
0
ARC
8
0
10
-6
20
11
40
1
50
180
51
270
0
ARC
8
0
10
6
20
28
40
1
50
270
51
0
0
ARC
8
0
10
6
20
40
40
1
50
0
51
90
0
ARC
8
0
10
-6
20
40
40
1
50
90
51
180
0
ARC
8
0
10
-6
20
28
40
1
50
180
51
270
0
ARC
8
0
10
24
20
0
40
1
50
270
51
0
0
ARC
8
0
10
24
20
12
40
1
50
0
51
90
0
ARC
8
0
10
12
20
12
40
1
50
90
51
180
0
ARC
8
0
10
12
20
0
40
1
50
180
51
270
0
ARC
8
0
10
24
20
17
40
1
50
270
51
0
0
ARC
8
0
10
24
20
29
40
1
50
0
51
90
0
ARC
8
0
10
12
20
29
40
1
50
90
51
180
0
ARC
8
0
10
12
20
17
40
1
50
180
51
270
0
ARC
8
0
10
24
20
34
40
1
50
270
51
0
0
ARC
8
0
10
24
20
46
40
1
50
0
51
90
0
ARC
8
0
10
12
20
46
40
1
50
90
51
180
0
ARC
8
0
10
12
20
34
40
1
50
180
51
270
0
ARC
8
0
10
42
20
0
40
1
50
270
51
0
0
ARC
8
0
10
42
20
12
40
1
50
0
51
90
0
ARC
8
0
10
30
20
12
40
1
50
90
51
180
0
ARC
8
0
10
30
20
0
40
1
50
180
51
270
0
ARC
8
0
10
42
20
17
40
1
50
270
51
0
0
ARC
8
0
10
42
20
29
40
1
50
0
51
90
0
ARC
8
0
10
30
20
29
40
1
50
90
51
180
0
ARC
8
0
10
30
20
17
40
1
50
180
51
270
0
ARC
8
0
10
42
20
34
40
1
50
270
51
0
0
ARC
8
0
10
42
20
46
40
1
50
0
51
90
0
ARC
8
0
10
30
20
46
40
1
50
90
51
180
0
ARC
8
0
10
30
20
34
40
1
50
180
51
270
0
ARC
8
0
10
60
20
0
40
1
50
270
51
0
0
ARC
8
0
10
60
20
12
40
1
50
0
51
90
0
ARC
8
0
10
48
20
12
40
1
50
90
51
180
0
ARC
8
0
10
48
20
0
40
1
50
180
51
270
0
ARC
8
0
10
60
20
17
40
1
50
270
51
0
0
ARC
8
0
10
60
20
29
40
1
50
0
51
90
0
ARC
8
0
10
48
20
29
40
1
50
90
51
180
0
ARC
8
0
10
48
20
17
40
1
50
180
51
270
0
ARC
8
0
10
60
20
34
40
1
50
270
51
0
0
ARC
8
0
10
60
20
46
40
1
50
0
51
90
0
ARC
8
0
10
48
20
46
40
1
50
90
51
180
0
ARC
8
0
10
48
20
34
40
1
50
180
51
270
0
ARC
8
0
10
78
20
0
40
1
50
270
51
0
0
ARC
8
0
10
78
20
12
40
1
50
0
51
90
0
ARC
8
0
10
66
20
12
40
1
50
90
51
180
0
ARC
8
0
10
66
20
0
40
1
50
180
51
270
0
ARC
8
0
10
78
20
17
40
1
50
270
51
0
0
ARC
8
0
10
78
20
29
40
1
50
0
51
90
0
ARC
8
0
10
66
20
29
40
1
50
90
51
180
0
ARC
8
0
10
66
20
17
40
1
50
180
51
270
0
ARC
8
0
10
78
20
34
40
1
50
270
51
0
0
ARC
8
0
10
78
20
46
40
1
50
0
51
90
0
ARC
8
0
10
66
20
46
40
1
50
90
51
180
0
ARC
8
0
10
66
20
34
40
1
50
180
51
270
0
ARC
8
0
10
78
20
-21
40
1
50
270
51
0
0
ARC
8
0
10
78
20
-9
40
1
50
0
51
90
0
ARC
8
0
10
66
20
-9
40
1
50
90
51
180
0
ARC
8
0
10
66
20
-21
40
1
50
180
51
270
0
ENDSEC
0
EOF